<svg xmlns="http://www.w3.org/2000/svg" version="1.1" xmlns:xlink="http://www.w3.org/1999/xlink" xmlns:svgjs="http://svgjs.dev/svgjs" width="2000" height="2041" viewBox="0 0 2000 2041"><g transform="matrix(1,0,0,1,-1.5304782030708566,-3.2904157455615177)"><svg viewBox="0 0 243 248" data-background-color="#ffffff" preserveAspectRatio="xMidYMid meet" height="2041" width="2000" xmlns="http://www.w3.org/2000/svg" xmlns:xlink="http://www.w3.org/1999/xlink"><g id="tight-bounds" transform="matrix(1,0,0,1,0.18595310167310686,0.40002634420793015)"><svg viewBox="0 0 242.6280937966538 247.2" height="247.2" width="242.6280937966538"><g><svg viewBox="0 0 242.6280937966538 247.2" height="247.2" width="242.6280937966538"><g><svg viewBox="0 0 242.6280937966538 247.2" height="247.2" width="242.6280937966538"><g id="textblocktransform"><svg viewBox="0 0 242.6280937966538 247.2" height="247.2" width="242.6280937966538" id="textblock"><g><svg viewBox="0 0 242.6280937966538 247.2" height="247.2" width="242.6280937966538"><path d="M242.06 53.02C240.919 27.36 237.669 20.227 237.669 20.227 227.688-6.202 215.232-0.506 204.042 3.292 184.286 3.446 164.61 9.091 144.9 12.119 103.529 12.581 61.804 4.986 20.638 23.717 16.771 29.464-4.012 24.846 0.688 56.304 1.92 69.39 6.414 83.913 6.277 95.922 6.893 98.026 7.748 93.202 8.113 96.23 9.391 104.39 11.478 100.541 13.189 105.365 10.805 118.246 12.516 128.971 14.147 140.21 11.273 143.135 7.589 141.749 5.935 151.449 5.764 158.479 4.84 157.145 3.825 156.837 3.083 156.632 1.589 157.402 1.84 159.608 2.695 167.152-0.978 171.514 1.327 178.904-0.259 186.91 2.422 193.838 2.057 202.511 2.011 204.255 2.262 205.744 2.661 206.154 4.429 208.361 1.851 212.672 2.125 217.342 20.261 249.262 39.937 227.195 58.519 241.872 63.344 231.608 59.716 245.516 61.644 243.36 63.15 240.846 64.245 251.263 65.944 245.362 66.207 243.668 65.807 239.665 66.743 240.435 67.233 240.846 67.667 240.743 67.735 238.382 67.838 234.841 66.937 237.048 66.697 235.201 69.286 225.861 68.648 248.081 71.077 247.158 70.963 244.438 70.256 240.538 71.704 241.051 73.142 237.151 73.187 233.918 74.465 242.693 74.51 244.592 74.739 245.926 75.104 246.85 79.096 237.305 83.065 250.237 87.251 245.926 89.818 241.205 92.282 248.492 94.882 246.696 95.795 245.259 96.719 242.693 97.597 247.004 108.353 247.928 119.817 244.079 130.014 247.158 157.264 241.41 186.385 249.518 215.118 241.923 221.893 238.998 228.931 234.841 235.536 231.506 235.536 231.506 240.885 222.371 240.885 181.316S242.026 145.393 242.197 112.703C242.368 80.013 243.166 78.679 242.026 53.02Z" opacity="1" fill="#ed3b43" data-fill-palette-color="tertiary"></path><g transform="matrix(1,0,0,1,55.76832,26.230666666666668)"><svg width="131.09145379665378" viewBox="2.1911805611129997 -35.55 24.318819438887 36.14" height="194.73866666666666" data-palette-color="#ffffff"><path d="M13.38 0.59L13.38 0.59Q10.28 0.59 8.24 0.02 6.2-0.54 4.97-1.38 3.74-2.22 3.08-3.05L3.08-3.05Q2.86-3.37 2.69-3.66 2.51-3.96 2.44-4.32L2.44-4.32Q2.34-4.81 2.25-5.6 2.15-6.4 2.22-7.45L2.22-7.45Q2.25-7.89 2.39-8.06L2.39-8.06Q2.56-8.25 2.95-8.35L2.95-8.35Q3.66-8.52 4.8-8.65 5.93-8.79 6.42-8.79L6.42-8.79Q6.93-8.79 7.25-8.59 7.57-8.4 8.01-7.93L8.01-7.93Q8.5-7.42 9.69-6.63 10.89-5.83 13.38-5.83L13.38-5.83Q15.77-5.83 16.99-6.84 18.21-7.84 18.21-9.62L18.21-9.62Q18.21-10.57 17.64-11.41 17.07-12.26 15.55-13.1 14.04-13.94 11.23-14.87L11.23-14.87Q6.59-16.43 4.54-18.75 2.49-21.07 2.49-25.2L2.49-25.2Q2.49-28.61 4.15-30.91 5.81-33.2 8.74-34.38 11.67-35.55 15.5-35.55L15.5-35.55Q18.46-35.55 20.4-34.85 22.34-34.16 23.41-33.29 24.49-32.42 24.8-31.88L24.8-31.88Q25-31.57 25.06-31.41 25.12-31.25 25.15-30.98L25.15-30.98Q25.22-30.22 25.2-29.3 25.17-28.37 25.02-27.2L25.02-27.2Q24.95-26.81 24.76-26.66L24.76-26.66Q24.58-26.54 24.22-26.54L24.22-26.54Q21.85-26.49 20.56-26.78L20.56-26.78Q20.04-26.9 19.87-27.03 19.7-27.15 19.43-27.42L19.43-27.42Q19.04-27.88 18.2-28.5 17.36-29.13 15.5-29.13L15.5-29.13Q12.94-29.13 11.87-27.97 10.79-26.81 10.79-25.37L10.79-25.37Q10.79-23.66 12.38-22.69 13.96-21.73 17.38-20.51L17.38-20.51Q20.24-19.51 22.29-18.33 24.34-17.16 25.43-15.33 26.51-13.5 26.51-10.5L26.51-10.5Q26.51-6.76 24.79-4.3 23.07-1.83 20.1-0.62 17.14 0.59 13.38 0.59Z" opacity="1" transform="matrix(1,0,0,1,0,0)" fill="#ffffff" class="wordmark-text-0" data-fill-palette-color="quaternary" id="text-0"></path></svg></g></svg></g></svg></g></svg></g><g></g></svg></g><defs></defs></svg><rect width="242.6280937966538" height="247.2" fill="none" stroke="none" visibility="hidden"></rect></g></svg></g></svg>